. 
 
http://www.torrenting.com          :     Once & For all ;)


               www . Torrenting . Com 

(((((((((((((= Enjoy No RAR releases =))))))))))))))))))))


...................................NFO:....................................



[color=blue][size=5][b]Beware.2011.DVDRip.XVID.AC3.SeT-CM8[/b][/size][/color]


[b]CM8 Doing It Right The First Time :D


Source: Thx Elmo and Green Lantern

Encode:

Dvd quality was ok, did the usual,brightness,sharpness,rgb,denoise
got nice
enjoy

Video: 720x400 @bitrate 1700 2pass
Audio: English AC3 5.1 @ 320 
Sample: yes included[/b]


[url]http://www.imdb.com/title/tt1928124/[/url]

[url]http://www.bewarethemovie.com/home.php[/url]


Complete name                    : Beware.2011.DVDRip.XVID.AC3.SeT-CM8.avi
Format                           : AVI
Format/Info                      : Audio Video Interleave
File size                        : 1.39 GiB
Duration                         : 1h 35mn
Overall bit rate                 : 2 094 Kbps
Writing library                  : VirtualDub build 30091/release

Video
ID                               : 0
Format                           : MPEG-4 Visual
Format profile                   : Advanced Simple@L5
Format settings, BVOP            : 2
Format settings, QPel            : No
Format settings, GMC             : No warppoints
Format settings, Matrix          : Default (H.263)
Codec ID                         : XVID
Codec ID/Hint                    : XviD
Duration                         : 1h 35mn
Bit rate                         : 1 762 Kbps
Width                            : 720 pixels
Height                           : 400 pixels
Display aspect ratio             : 16:9
Frame rate                       : 29.970 fps
Color space                      : YUV
Chroma subsampling               : 4:2:0
Bit depth                        : 8 bits
Scan type                        : Progressive
Compression mode                 : Lossy
Bits/(Pixel*Frame)               : 0.204
Stream size                      : 1.17 GiB (84%)
Writing library                  : XviD 1.2.1 (UTC 2008-12-04)

Audio
ID                               : 1
Format                           : AC-3
Format/Info                      : Audio Coding 3
Mode extension                   : CM (complete main)
Codec ID                         : 2000
Duration                         : 1h 35mn
Bit rate mode                    : Constant
Bit rate                         : 320 Kbps
Channel(s)                       : 6 channels
Channel positions                : Front: L C R, Side: L R, LFE
Sampling rate                    : 48.0 KHz
Bit depth                        : 16 bits
Compression mode                 : Lossy
Stream size                      : 218 MiB (15%)
Alignment                        : Split accross interleaves
Interleave, duration             : 33 ms (1.00 video frame)
Interleave, preload duration     : 500 ms



Plot:

The town of Shady Grove holds many dark secrets. Amongst those secrets is the sadistic tale 
of "Shane", a boy who was tortured and chained to a tree as a youngster. Legend has it that 
for years he survived in the woods all alone until one day he managed to escape. Now, damaged 
and broken, he wanders those woods in search of blood, with his trademark chains fused to his 
wrists. Despite years of tales and urban myths, no proof of his existence has ever been 
discovered, until five unsuspecting teens reveal the truth on an ill-fated trip.


Cast:

Adam Leadbeater ... 	Jimmy 
Lorena King 	... 	Nella 
William Katt	... 	Ryan Donnelly
Cecilia Huete 	... 	Maria 
Vivi Pineda 	... 	Cristina 
Eddy Acosta 	... 	Diego 
Alex Livinalli 	... 	Fransisco 
Omar Caraballo 	... 	Sheriff Munez 









shouts

Mr Hive, thanks for all you work. The Legend @ Work

To Friends Unevano, Ted, Simmo

and huge respect goes out to Santi, DTRG and THC for all they do.

and respect to the the past ... Prism & Pukka .. gone but not forgotten


LOOKING FOR ANYTHING YOU WANT TO LOOK AND SOUND BETTER

CM8@hushmail.com